<?xml version="1.0" standalone="no"?>
<!DOCTYPE svg PUBLIC "-//W3C//DTD SVG 20010904//EN"
 "http://www.w3.org/TR/2001/REC-SVG-20010904/DTD/svg10.dtd">
<svg version="1.0" xmlns="http://www.w3.org/2000/svg"
 width="1024.000000pt" height="1024.000000pt" viewBox="0 0 1024.000000 1024.000000"
 preserveAspectRatio="xMidYMid meet">

<g transform="translate(0.000000,1024.000000) scale(0.100000,-0.100000)"
fill="#000000" stroke="none">
<path d="M4745 8464 c-560 -57 -1042 -210 -1535 -489 -483 -273 -933 -718
-1233 -1220 -251 -421 -401 -849 -478 -1365 -21 -138 -24 -192 -24 -485 0
-337 6 -418 51 -665 122 -674 446 -1298 938 -1808 259 -268 540 -471 916 -662
517 -262 1052 -389 1638 -390 483 0 945 90 1364 266 850 358 1453 925 1838
1729 234 489 355 1089 337 1675 -8 235 -27 392 -74 604 -50 229 -94 376 -175
581 -193 487 -452 875 -824 1234 -269 260 -525 441 -865 611 -403 203 -716
299 -1184 366 -105 15 -594 28 -690 18z m440 -288 c66 -24 153 -85 204 -142
52 -59 106 -166 122 -241 23 -114 -3 -290 -52 -342 -26 -28 -65 -27 -83 2 -14
20 -13 30 9 100 30 94 32 164 5 250 -50 160 -192 274 -355 285 -146 9 -273
-46 -352 -151 -49 -68 -72 -133 -80 -232 -4 -58 0 -84 22 -154 l27 -84 -26
-26 c-25 -25 -28 -25 -54 -11 -65 37 -102 235 -68 370 9 36 32 97 51 136 56
116 176 212 306 249 73 20 256 15 324 -9z m-58 -217 c60 -29 119 -89 146 -148
16 -35 22 -66 22 -126 0 -91 -14 -129 -76 -199 -37 -41 -39 -48 -39 -108 0
-80 -13 -101 -60 -96 l-35 3 -3 111 -3 110 40 32 c45 36 81 104 81 153 -1 72
-58 153 -132 183 -156 66 -312 -106 -237 -260 11 -24 38 -59 60 -79 l40 -36
-3 -107 -3 -107 -35 -3 c-46 -5 -60 17 -60 94 0 60 -2 66 -49 127 -96 127 -94
278 6 388 85 94 227 123 340 68z m-1396 -110 c48 -16 74 -43 88 -89 31 -106
-58 -195 -162 -161 -121 40 -121 215 -1 251 39 11 37 11 75 -1z m1310 -75 c36
-18 59 -67 50 -103 -8 -30 -64 -71 -95 -71 -12 0 -31 8 -42 18 -53 42 -54 103
-2 147 34 29 48 31 89 9z m1469 -108 l55 -13 0 -51 c0 -52 0 -52 50 -81 l49
-28 38 30 37 30 46 -38 c25 -20 45 -41 43 -46 -2 -5 -21 -31 -43 -59 -39 -49
-40 -50 -96 -50 -41 0 -63 5 -82 20 -48 38 -117 62 -176 62 -81 0 -196 -29
-230 -58 -27 -23 -36 -24 -156 -24 l-127 0 -29 -29 c-28 -28 -29 -34 -29 -115
0 -104 18 -132 90 -144 41 -7 45 -10 48 -39 3 -25 -2 -35 -22 -48 -57 -37
-145 -11 -193 57 -26 39 -28 48 -31 162 -2 116 -1 123 25 171 45 80 85 95 255
95 154 0 157 2 117 66 l-20 33 48 35 c26 20 51 36 55 36 4 0 24 -20 44 -44 32
-39 40 -43 61 -35 13 5 35 9 48 9 21 0 25 7 35 55 13 60 11 60 90 41z m-2329
-219 c67 -44 69 -58 69 -387 0 -268 -2 -299 -19 -337 -29 -63 -100 -93 -135
-57 -24 24 -19 57 14 99 l30 38 0 249 c0 281 -4 302 -63 313 -17 3 -201 5
-408 3 -354 -3 -378 -4 -398 -22 -20 -18 -21 -27 -21 -282 l0 -263 28 -21 c22
-18 35 -21 73 -16 41 6 48 3 73 -23 53 -56 16 -91 -99 -91 -90 0 -131 20 -162
79 -22 43 -23 51 -23 330 0 260 2 290 20 328 11 25 33 51 52 63 32 19 49 20
484 20 l451 0 34 -23z m-374 -149 c101 -37 201 -167 163 -213 -22 -27 -47 -16
-83 34 -50 69 -98 103 -155 109 -130 12 -241 -82 -242 -206 0 -81 46 -145 125
-173 30 -11 35 -17 35 -46 0 -41 -18 -50 -69 -34 -65 19 -116 64 -150 132
-116 232 128 490 376 397z m2247 -44 c21 -20 20 -43 -1 -66 -32 -36 -83 -17
-83 32 0 14 5 31 12 38 17 17 54 15 72 -4z m182 -9 c15 -23 15 -27 0 -50 -10
-15 -26 -25 -40 -25 -40 0 -63 46 -40 79 21 29 60 27 80 -4z m168 9 c47 -47
-17 -112 -66 -67 -22 20 -23 32 -2 61 18 26 46 28 68 6z m438 -1 c24 -22 23
-49 -4 -67 -29 -21 -285 -23 -310 -3 -25 19 -31 53 -13 71 24 24 300 24 327
-1z m-1668 -86 c8 -22 6 -31 -7 -45 -15 -14 -40 -18 -143 -20 -147 -4 -171 0
-186 33 -9 21 -8 28 7 45 17 19 29 20 169 18 l151 -3 9 -28z m-2350 -28 c21
-16 26 -29 26 -63 0 -64 -48 -96 -111 -74 -35 12 -49 35 -49 79 0 69 77 103
134 58z m4480 0 c19 -15 26 -29 26 -57 0 -50 -32 -82 -82 -82 -50 0 -78 28
-78 77 0 73 75 108 134 62z m-3541 -47 c19 -20 28 -40 29 -67 3 -73 -92 -123
-148 -77 -50 40 -53 94 -6 145 36 38 88 38 125 -1z m3019 -66 l48 -54 -41 -41
c-23 -23 -44 -41 -48 -41 -4 0 -22 11 -41 25 -32 24 -33 24 -59 6 -14 -10 -36
-22 -49 -25 -21 -7 -22 -11 -16 -65 l6 -57 -40 -12 c-75 -23 -90 -18 -105 36
l-14 47 -52 5 -53 6 -29 -43 c-16 -23 -33 -45 -39 -48 -5 -3 -32 7 -60 22 -57
31 -58 43 -17 117 30 53 95 79 191 77 88 -2 157 18 221 64 41 29 59 35 100 35
48 0 52 -2 97 -54z m-1634 -13 c2 -12 -6 -31 -17 -42 -19 -19 -33 -21 -129
-21 -81 0 -113 4 -130 16 -21 14 -30 53 -15 68 4 3 70 5 147 4 136 -3 141 -4
144 -25z m-2526 -150 c20 -18 24 -73 6 -91 -32 -32 -108 -2 -108 42 0 56 62
86 102 49z m1252 -76 c25 -50 46 -99 46 -108 0 -18 -53 -45 -69 -35 -14 9 -69
107 -86 155 -13 39 -13 42 7 61 39 36 53 26 102 -73z m3606 77 c20 -23 16 -75
-5 -90 -61 -45 -130 21 -84 79 23 31 69 36 89 11z m-2180 -229 c102 -22 243
-71 314 -108 91 -48 119 -110 74 -162 -37 -42 -80 -42 -188 0 -310 121 -613
121 -906 0 -163 -68 -276 -143 -410 -275 -325 -319 -452 -777 -338 -1215 62
-241 149 -388 351 -600 120 -124 130 -146 84 -187 -43 -38 -100 -39 -150 -1
-173 129 -354 394 -436 638 -97 292 -95 667 6 960 173 499 630 884 1144 965
87 13 366 4 455 -15z m-2470 -100 c4 -50 8 -60 25 -63 11 -2 37 -10 58 -19
l37 -16 36 41 c20 23 41 42 47 42 7 0 32 -17 57 -39 l45 -38 -38 -47 -38 -46
28 -37 c15 -21 28 -39 28 -40 1 -1 23 4 50 12 26 8 51 15 55 15 7 0 30 -98 30
-125 0 -7 -21 -15 -50 -19 l-50 -7 0 -53 0 -53 38 -7 c60 -10 65 -16 57 -81
l-8 -57 -63 6 c-56 6 -63 4 -69 -12 -3 -11 -14 -27 -25 -37 -19 -18 -19 -18
10 -52 17 -18 30 -42 30 -51 0 -10 -18 -36 -41 -57 l-40 -40 -45 47 -45 48
-57 -19 -57 -19 -3 -55 c-3 -54 -3 -55 -40 -61 -20 -3 -49 -6 -64 -6 -28 0
-28 1 -28 65 l0 65 -29 0 c-41 0 -147 74 -196 137 -25 33 -45 50 -55 47 -8 -3
-35 -8 -60 -11 l-45 -5 -12 57 c-7 32 -10 61 -8 65 3 4 24 13 48 20 l43 13 0
58 -1 57 -43 5 c-24 2 -45 7 -47 9 -3 2 0 33 6 67 l12 63 48 -6 c27 -4 55 -9
62 -12 8 -3 27 15 45 40 52 72 153 146 200 146 16 0 20 9 24 56 3 33 11 60 19
65 8 5 37 8 64 7 l50 -3 5 -60z m3628 51 c86 -45 103 -160 31 -220 -56 -47
-140 -43 -189 9 -31 33 -38 110 -16 154 32 62 113 88 174 57z m792 -45 l0 -59
41 -7 c30 -5 56 -21 95 -56 l54 -49 103 0 c162 -1 210 -19 254 -96 20 -34 23
-53 23 -159 0 -136 -14 -181 -69 -228 -44 -37 -90 -47 -213 -47 -134 0 -154
-7 -168 -59 -9 -35 -16 -42 -48 -51 -20 -5 -43 -10 -49 -10 -9 0 -13 -16 -13
-44 0 -72 -4 -76 -76 -76 l-64 0 0 60 c0 43 -4 60 -13 60 -8 0 -36 11 -63 25
-38 20 -51 22 -59 12 -6 -6 -27 -27 -47 -46 l-37 -34 -42 40 c-47 45 -47 62 2
114 34 37 34 34 10 67 -10 15 -26 51 -36 80 l-17 54 -53 -4 -53 -3 -6 50 c-10
89 -13 85 54 85 57 0 60 1 66 28 4 15 19 54 34 87 l27 60 -29 30 c-54 55 -54
63 -11 106 21 21 41 38 45 39 3 0 28 -17 55 -39 43 -33 52 -37 67 -25 10 7 35
15 56 19 l39 7 6 64 7 64 64 0 64 0 0 -59z m384 40 c14 -15 15 -24 6 -40 -11
-22 -26 -26 -54 -15 -21 8 -20 33 1 56 20 23 26 23 47 -1z m-5251 -13 c14 -21
-7 -48 -38 -48 -26 0 -41 36 -23 57 14 18 48 13 61 -9z m1353 -114 c19 -28 11
-59 -21 -80 -47 -31 -109 21 -86 72 21 46 79 51 107 8z m2226 -150 c23 -20 69
-63 101 -97 345 -367 474 -881 348 -1387 -30 -120 -93 -279 -145 -365 -92
-153 -303 -387 -358 -397 -67 -12 -132 28 -130 81 1 27 18 51 109 145 211 217
305 388 359 654 59 285 21 579 -106 832 -61 121 -98 174 -210 299 -109 121
-120 138 -120 176 0 39 17 65 53 80 45 20 50 19 99 -21z m-763 -152 c24 -24
29 -39 35 -104 l8 -76 46 -12 c26 -6 73 -23 105 -37 l58 -26 22 20 c41 37 101
73 123 73 27 0 221 -198 230 -235 7 -27 -27 -95 -65 -129 -26 -23 -26 -26 -1
-79 11 -23 28 -67 38 -97 20 -60 14 -56 136 -75 21 -4 49 -17 62 -30 23 -23
24 -30 24 -165 l0 -140 -32 -20 c-17 -10 -57 -22 -87 -25 -85 -10 -87 -11
-109 -73 -11 -31 -28 -77 -37 -103 l-18 -45 47 -63 c25 -35 46 -71 46 -81 0
-9 -13 -35 -29 -56 -45 -62 -187 -194 -207 -194 -17 0 -88 38 -136 72 -13 10
-29 6 -85 -19 -37 -17 -81 -35 -98 -40 -29 -9 -30 -13 -40 -91 -16 -119 -25
-126 -168 -130 -62 -2 -128 0 -147 5 -46 12 -71 57 -77 137 l-6 63 -80 34
c-44 19 -91 38 -103 43 -19 8 -29 5 -46 -11 -21 -20 -109 -63 -128 -63 -14 0
-149 131 -186 181 -20 28 -36 61 -36 74 0 13 18 51 40 85 l41 61 -28 72 c-15
40 -32 86 -37 102 -9 28 -14 31 -79 41 -135 21 -138 25 -133 208 2 102 6 128
20 143 10 9 54 24 99 33 l82 16 19 54 c10 30 27 76 39 102 l22 47 -30 38 c-49
62 -66 102 -55 128 12 26 177 202 203 216 21 11 80 -15 139 -61 30 -23 39 -26
55 -17 11 6 56 26 100 43 76 31 80 34 83 66 6 89 15 122 37 144 23 23 30 24
160 24 136 0 137 0 164 -28z m-3045 -463 c41 -36 55 -84 36 -130 -17 -41 -47
-59 -96 -59 -112 0 -154 144 -60 201 45 27 80 24 120 -12z m5825 17 c100 -52
72 -206 -38 -206 -53 0 -111 52 -111 99 0 46 26 90 63 106 41 18 52 18 86 1z
m-4799 -427 c21 -12 48 -40 61 -63 24 -40 24 -47 27 -340 3 -270 1 -300 -14
-317 -20 -22 -53 -25 -78 -6 -15 11 -17 40 -20 302 l-4 289 -26 23 -27 23
-513 0 c-337 0 -523 -4 -544 -11 -52 -18 -53 -32 -50 -427 3 -349 4 -362 23
-382 21 -20 31 -20 528 -20 279 0 507 -3 507 -6 0 -17 -44 -85 -66 -103 -25
-20 -39 -21 -234 -21 l-208 0 -25 -67 c-14 -38 -28 -76 -32 -85 -7 -17 5 -18
154 -18 159 0 162 -1 186 -25 25 -25 31 -50 17 -73 -7 -9 -73 -12 -298 -10
l-289 3 -3 36 c-4 47 18 69 67 69 l38 0 30 78 c17 42 29 79 26 82 -2 3 -101 7
-218 10 -240 6 -248 8 -292 86 -22 39 -23 44 -23 439 0 231 4 415 10 434 11
39 41 75 85 102 28 18 61 19 599 19 560 0 569 0 606 -21z m4864 7 c43 -18 81
-69 96 -126 8 -31 10 -168 8 -435 -3 -369 -4 -392 -23 -424 -43 -74 -51 -76
-296 -79 -120 -2 -219 -7 -219 -12 0 -5 13 -42 29 -82 l30 -73 43 -3 c51 -4
78 -25 78 -62 0 -49 -3 -50 -317 -50 l-293 0 -6 27 c-4 16 -2 36 7 52 l15 26
177 0 c97 0 177 1 177 2 0 2 -18 41 -39 88 l-40 85 -193 0 c-158 0 -198 3
-216 15 -20 15 -82 97 -82 109 0 3 229 6 508 6 505 0 509 0 528 21 18 20 19
41 19 396 l0 375 -28 24 -28 24 -523 0 c-514 0 -524 0 -550 -21 l-26 -20 0
-288 c0 -304 -1 -312 -47 -326 -17 -4 -30 1 -48 19 l-26 26 3 303 c3 297 3
303 26 340 13 21 40 46 60 57 35 18 64 19 600 20 459 0 569 -3 596 -14z m-271
-240 c20 -15 23 -56 5 -74 -17 -17 -619 -17 -636 0 -19 19 -14 55 10 72 19 14
66 16 313 16 225 -1 294 -4 308 -14z m-719 -12 c20 -20 20 -27 -3 -55 -16 -21
-22 -22 -45 -11 -17 8 -26 19 -26 35 0 44 43 62 74 31z m816 1 c7 -9 10 -25 6
-41 -5 -20 -12 -25 -34 -22 -28 3 -40 32 -28 64 7 18 40 18 56 -1z m-5023 -45
c17 -10 36 -28 42 -38 12 -22 26 -440 17 -470 -9 -28 -44 -34 -66 -12 -18 18
-19 34 -16 217 4 264 27 243 -263 243 -275 0 -261 8 -261 -152 0 -78 4 -117
15 -138 l16 -30 184 0 185 0 6 -24 c3 -13 1 -34 -5 -45 -11 -20 -16 -21 -209
-15 -219 7 -237 12 -259 75 -17 50 -17 301 1 343 27 65 32 66 321 66 240 0
262 -2 292 -20z m4211 -187 c3 -27 -1 -35 -22 -44 -33 -15 -56 2 -56 41 0 31
12 40 50 37 20 -2 26 -8 28 -34z m726 12 c4 -14 2 -34 -4 -45 -10 -19 -22 -20
-318 -20 -226 0 -311 3 -320 12 -18 18 -15 55 6 67 10 7 134 11 323 11 l307 0
6 -25z m56 16 c12 19 40 -7 40 -37 0 -31 -35 -51 -55 -30 -10 9 -11 17 -5 21
5 3 10 1 10 -4 0 -6 5 -11 10 -11 6 0 5 8 -2 19 -7 11 -15 18 -19 15 -4 -2 -5
6 -1 18 3 14 7 17 10 9 4 -11 6 -11 12 0z m-5134 -35 c8 -11 10 -26 5 -39 -8
-21 -14 -22 -157 -22 l-149 0 0 35 c0 45 16 49 169 46 100 -2 121 -5 132 -20z
m5068 -182 c21 -20 20 -43 -1 -66 -15 -17 -38 -18 -310 -18 -184 0 -302 4
-314 10 -23 13 -25 53 -3 74 13 14 56 16 314 16 258 0 301 -2 314 -16z m-714
-9 c17 -20 -1 -61 -30 -70 -40 -13 -77 44 -48 73 17 17 63 15 78 -3z m804 9
c19 -7 21 -45 4 -62 -30 -30 -76 6 -63 48 6 20 29 25 59 14z m-4131 -861 c17
-10 49 -91 127 -323 45 -135 85 -251 89 -258 7 -13 70 153 167 441 19 56 41
110 49 121 30 39 178 42 212 4 17 -19 18 -56 21 -492 3 -463 2 -473 -18 -498
-26 -34 -85 -45 -134 -24 -20 8 -37 16 -38 18 -1 2 -5 118 -8 258 l-5 255 -58
-180 c-33 -99 -68 -209 -79 -245 -32 -102 -39 -110 -103 -110 -48 0 -57 3 -71
26 -10 14 -45 114 -79 222 -87 276 -89 282 -98 282 -4 0 -4 -110 -1 -243 7
-236 6 -245 -13 -264 -46 -46 -152 -33 -173 22 -6 16 -10 205 -10 484 0 445 1
459 20 484 11 14 33 28 48 30 29 5 142 -2 155 -10z m1078 7 c23 -6 40 -19 47
-36 17 -36 17 -933 0 -969 -23 -51 -151 -55 -178 -5 -6 12 -10 190 -10 492 0
518 -1 512 58 521 15 2 32 5 37 5 6 1 26 -3 46 -8z m748 -24 c152 -43 251
-171 251 -325 0 -113 -49 -204 -137 -257 l-52 -31 52 -89 c29 -49 74 -120 100
-157 47 -68 56 -102 37 -138 -9 -16 -22 -19 -86 -19 -92 0 -94 2 -189 160
-117 197 -120 200 -165 200 l-40 0 0 -159 c0 -195 -4 -204 -95 -204 -51 0 -61
4 -82 27 l-23 27 0 475 c0 470 0 474 21 495 21 21 28 21 188 16 103 -3 186
-11 220 -21z m866 18 c26 -11 42 -53 90 -245 45 -180 84 -328 151 -579 40
-145 41 -163 14 -190 -15 -15 -33 -20 -79 -20 -33 0 -67 3 -76 6 -22 9 -40 47
-60 134 l-17 75 -117 -2 -116 -2 -21 -93 c-13 -54 -29 -97 -39 -104 -24 -18
-106 -27 -137 -15 -15 6 -35 22 -44 36 -16 25 -15 33 39 233 31 114 86 320
122 457 68 252 84 299 107 308 19 8 163 8 183 1z m-3447 -69 c23 -29 20 -50
-9 -65 -11 -6 -205 -10 -495 -10 -430 0 -479 2 -496 17 -22 20 -23 41 -3 64
15 15 57 17 500 18 l483 2 20 -26z m5066 4 c32 -25 33 -43 4 -63 -20 -14 -85
-16 -513 -15 -511 0 -556 4 -563 42 -2 10 4 27 14 38 17 19 34 19 525 19 494
-1 508 -1 533 -21z m-5672 -189 c50 -39 67 -123 36 -183 -25 -48 -124 -73
-176 -43 -57 31 -82 133 -46 185 42 59 137 80 186 41z m5485 -24 c27 -29 33
-44 33 -81 0 -84 -47 -135 -124 -135 -87 0 -143 60 -134 144 9 79 59 118 142
112 42 -3 55 -9 83 -40z m-4796 -36 c12 -7 19 -21 19 -40 0 -19 -7 -33 -19
-40 -12 -6 -118 -10 -275 -10 -243 0 -257 1 -276 20 -26 26 -25 45 2 64 19 14
63 16 276 16 155 0 261 -4 273 -10z m4471 -7 c22 -20 23 -46 2 -67 -13 -14
-49 -16 -239 -16 -123 0 -235 4 -248 9 -32 13 -41 39 -22 67 l15 24 237 0
c206 0 239 -2 255 -17z m-4538 -233 c29 -11 48 -42 40 -64 -11 -28 -66 -36
-238 -36 -188 0 -219 7 -224 52 -6 51 22 58 220 58 97 0 188 -4 202 -10z
m4470 0 c32 -12 45 -55 23 -77 -13 -13 -50 -15 -248 -14 -135 1 -238 6 -245
12 -21 17 -22 47 -2 68 18 20 29 21 233 21 117 0 225 -4 239 -10z m-4471 -263
c20 -15 49 -44 64 -64 25 -32 28 -45 28 -112 0 -66 -3 -81 -27 -116 -113 -167
-387 -85 -388 115 0 49 35 134 66 162 39 34 87 48 155 45 54 -2 73 -8 102 -30z
m4302 14 c47 -22 99 -74 114 -114 6 -16 11 -49 11 -75 -1 -218 -296 -286 -394
-91 -14 29 -26 67 -26 83 0 155 159 260 295 197z"/>
<path d="M3661 7741 c-15 -26 -4 -50 25 -57 32 -8 56 13 52 45 -2 21 -9 27
-35 29 -23 2 -34 -2 -42 -17z"/>
<path d="M2676 6335 c-88 -31 -156 -140 -156 -248 1 -94 58 -183 145 -223 58
-27 111 -30 181 -9 104 31 174 130 174 245 0 173 -178 295 -344 235z m155
-120 c66 -34 91 -136 48 -196 -77 -109 -239 -55 -241 80 -1 96 107 160 193
116z"/>
<path d="M6373 6508 c-31 -40 -15 -88 31 -88 44 0 63 52 30 84 -19 19 -48 21
-61 4z"/>
<path d="M7103 6339 c-161 -62 -205 -295 -79 -420 46 -46 111 -73 176 -73 60
1 93 15 164 69 l46 35 116 0 116 0 34 34 c34 34 34 35 34 123 -1 135 -22 153
-188 153 l-109 0 -44 35 c-48 38 -122 65 -178 64 -20 0 -60 -9 -88 -20z m117
-205 c10 -11 11 -23 4 -42 -17 -48 -84 -38 -84 12 0 43 53 63 80 30z m387 -6
c6 -14 7 -32 2 -45 -8 -22 -13 -23 -142 -23 -140 0 -157 5 -157 45 0 40 17 45
155 45 127 0 132 -1 142 -22z"/>
<path d="M4944 5665 c-181 -33 -333 -174 -379 -350 -19 -73 -19 -203 -1 -271
56 -212 254 -363 475 -364 189 0 367 109 445 274 182 380 -128 788 -540 711z"/>
<path d="M5330 3420 l0 -160 75 0 c90 0 142 22 174 73 31 50 28 122 -5 174
-36 55 -78 73 -169 73 l-75 0 0 -160z"/>
<path d="M6328 3355 c-6 -10 -68 -255 -68 -268 0 -4 34 -7 76 -7 67 0 75 2 70
18 -3 9 -17 62 -32 117 -38 144 -40 150 -46 140z"/>
<path d="M2267 3422 c-22 -24 -21 -45 1 -65 35 -32 72 -14 72 33 0 48 -42 66
-73 32z"/>
<path d="M7726 3424 c-30 -29 -11 -84 28 -84 48 0 76 69 37 90 -27 14 -47 13
-65 -6z"/>
<path d="M2834 2860 c-36 -14 -64 -59 -64 -102 0 -32 7 -47 35 -75 33 -33 39
-35 82 -30 114 13 143 150 43 202 -32 17 -64 18 -96 5z"/>
<path d="M7164 2861 c-57 -25 -83 -110 -48 -160 60 -86 204 -43 204 60 0 74
-87 130 -156 100z"/>
</g>
</svg>
